<?xml version="1.0" ?><svg style="enable-background:new 0 0 48 48;" version="1.1" viewBox="0 0 48 48" xml:space="preserve" xmlns="http://www.w3.org/2000/svg" xmlns:xlink="http://www.w3.org/1999/xlink"><g id="Padding__x26__Artboard"/><g id="Icons"><g><path d="M15.18457,35.78421c-0.07191-0.02899-0.13573-0.05473-0.20764-0.08372    c-0.41235-0.40603-0.79227-0.86936-1.15417-1.35966l0.33873,2.9018c0.04028,0.34506,0.30388,0.6219,0.64655,0.67904    l2.02833,0.33822c-0.40381-1.01416-0.52356-1.99744-0.5592-2.47571L15.18457,35.78421z" style="fill:#303030;"/><path d="M9.03227,23.61156l0.59274,5.0827c0.03316,0.28433,0.21759,0.52845,0.48204,0.63804l1.53901,0.6378    c-1.04993-3.25104-1.12933-6.37726-1.11902-7.48114l-0.93253,0.27333C9.22518,22.87054,8.98768,23.22928,9.03227,23.61156z" style="fill:#303030;"/><path d="M20.4961,36.44678c0,0.27686,0.2251,0.50195,0.50195,0.50195h6.09619    c0.27686,0,0.50195-0.2251,0.50195-0.50195v-1.4541c0-0.27686-0.2251-0.50195-0.50195-0.50195h-6.09619    c-0.27686,0-0.50195,0.2251-0.50195,0.50195v0.48578c0.00006,0.00226,0.00244,0.0036,0.00244,0.00592    s-0.00238,0.00366-0.00244,0.00592V36.44678z" style="fill:#303030;"/><path d="M33.21338,35.78418h-1.04846c-0.07086,1.01758-0.28809,1.83325-0.57263,2.47809l1.87429-0.32865    c0.35209-0.06174,0.61717-0.35487,0.6433-0.71137l0.21196-2.89175c-0.47162,0.81775-0.82513,1.27954-0.8736,1.34039    C33.39112,35.74268,33.30469,35.78418,33.21338,35.78418z" style="fill:#303030;"/><path d="M28.1958,36.44678c0,0.60838-0.49319,1.10156-1.10156,1.10156h-6.09619    c-0.60838,0-1.10156-0.49319-1.10156-1.10156v-0.6626h-3.01624c0.06178,0.70739,0.31779,2.48013,1.36292,3.69206    c0.2581,0.29929,0.63793,0.46907,1.03314,0.46907h9.72326c0.29822,0,0.5913-0.08979,0.82294-0.27761    c0.59201-0.48003,1.55931-1.60445,1.73211-3.88352H28.1958V36.44678z" style="fill:#303030;"/><path d="M36.16339,30.04907l1.72957-0.71678c0.26445-0.10959,0.44888-0.35371,0.48204-0.63804    l0.59274-5.08265c0.04458-0.3823-0.19294-0.74105-0.5623-0.84929l-1.0391-0.30449    C37.30829,25.49548,36.79767,28.0296,36.16339,30.04907z" style="fill:#303030;"/><path d="M36.74952,20.65576c-0.00214-0.03333-0.00879-0.12103-0.02185-0.24939    c-0.00085-0.00323-0.00427-0.0047-0.005-0.00793c-0.55176-2.41553-3.01514-5.05713-3.36426-5.31982    c-0.12061-0.0625-0.1875-0.20117-0.15332-0.33887c0.03955-0.16064,0.2002-0.26074,0.36328-0.21875    c0.24542,0.06085,1.58026,1.44086,2.61188,3.1474c-1.06055-3.68219-4.05981-9.45837-12.46002-9.61371    c-0.43213,0.00043-9.96796-0.01733-12.15027,10.36591c1.41504-2.81006,4.66009-7.04218,11.41199-7.04218    c0.07959,0,0.15918,0.00049,0.23975,0.00195c0.14014-0.02148,3.09961,0.00342,4.72803,0.2998    c0.16309,0.0293,0.271,0.18555,0.24121,0.34863c-0.0293,0.16357-0.18994,0.27148-0.34863,0.24121    c-1.57568-0.28662-4.59473-0.29004-4.625-0.29004c-0.07617-0.00098-0.15381-0.00146-0.229-0.00146    c-9.42371,0-11.69104,8.60931-11.78564,8.98755c-0.02863,0.36749-0.0567,0.73645-0.06641,1.12427    c-0.00195,0.04877-0.18048,4.24237,1.28339,8.29504c0.00037,0.00085,0.00043,0.00159,0.00079,0.00244    c0.00104,0.00287,0.00189,0.0058,0.00293,0.00867c0.34229,0.94775,0.75,1.82471,1.2124,2.60645    c0.4917,0.82275,1.0542,1.55615,1.67285,2.18164h1.23852c0.00354-0.00018,0.00549-0.00385,0.00903-0.00391    c0.00195,0,0.00342,0,0.00488,0c0.00372,0,0.00592,0.00378,0.00958,0.00391h3.32587v-0.19189    c0-0.60742,0.49414-1.10156,1.10156-1.10156h6.09619c0.60742,0,1.10156,0.49414,1.10156,1.10156v0.19189h3.69238    c0.00427,0,0.00641-0.00403,0.01074-0.00391c0.00336,0.00012,0.00513,0.00366,0.00848,0.00391h1.15509    C33.65088,34.36865,37.0962,29.20117,36.74952,20.65576z M23.94953,10.61194c-0.44763,0-0.81049-0.36292-0.81049-0.81055    s0.36285-0.81049,0.81049-0.81049s0.81055,0.36285,0.81055,0.81049S24.39716,10.61194,23.94953,10.61194z M29.73877,12.28613    c0.04639,0.01855,1.14648,0.46094,1.90283,0.99072c0.13574,0.09473,0.16895,0.28174,0.07373,0.41748    c-0.05811,0.0835-0.15137,0.12793-0.24609,0.12793c-0.05908,0-0.11914-0.01758-0.17139-0.0542    c-0.69922-0.48877-1.771-0.9209-1.78174-0.92529c-0.15381-0.06152-0.22852-0.23584-0.16699-0.38965    S29.58545,12.2251,29.73877,12.28613z M13.44092,19.58838c0.09521-0.20068,2.37891-4.91846,6.71338-5.5293    c0.15869-0.02539,0.31592,0.08984,0.33887,0.25488c0.02344,0.16406-0.09082,0.31592-0.25488,0.33887    c-4.01172,0.56592-6.2334,5.14648-6.25537,5.19287c-0.05127,0.10791-0.15918,0.1709-0.271,0.1709    c-0.04346,0-0.08691-0.00928-0.12891-0.02881C13.4336,19.9165,13.37012,19.73779,13.44092,19.58838z M20.7854,29.51324    c-0.11052,0.07458-0.22458,0.12146-0.3584,0.19476c-0.65881,0.33734-1.39374,0.5459-2.18335,0.5459    c-0.76495,0-1.47913-0.19495-2.12262-0.51276c-0.00281,0.00006-0.16475-0.08596-0.23761-0.12915    c-1.46722-0.83026-2.47131-2.38696-2.47131-4.18964c0-1.8075,1.00946-3.36749,2.48309-4.19598    c0.02692-0.03027,0.06531-0.03839,0.10242-0.05573c0.67419-0.35785,1.43103-0.57983,2.24603-0.57983    c0.88489,0,1.7041,0.25641,2.41809,0.67346c0.02325,0.01434,0.05042,0.01746,0.06885,0.03741    c1.39838,0.84747,2.34412,2.36945,2.34412,4.12067C23.07471,27.15131,22.15436,28.65936,20.7854,29.51324z M26.00342,31.9707    c-0.05859,0.08154-0.15088,0.125-0.24463,0.125c-0.06006,0-0.12109-0.01807-0.17432-0.05566l-1.63428-1.16992l-1.62646,1.16943    c-0.13574,0.09668-0.32275,0.06494-0.41895-0.06836c-0.09668-0.13477-0.06592-0.32227,0.06836-0.41895l1.80127-1.29492    c0.104-0.0752,0.24512-0.07471,0.3501-0.00049l1.80957,1.29492C26.06836,31.64844,26.09961,31.83594,26.00342,31.9707z     M32.1698,29.513c0,0-0.11909,0.07261-0.35871,0.19495c-0.65894,0.3374-1.39398,0.54596-2.18365,0.54596    c-0.76489,0-1.47894-0.19489-2.12231-0.5127c-0.00275,0.00006-0.08117-0.03572-0.2373-0.12903    c-1.46729-0.8302-2.47144-2.38696-2.47144-4.18982c0-1.80762,1.00946-3.3678,2.48315-4.19623    c0.02661-0.02979,0.06451-0.0376,0.10095-0.05487c0.67444-0.35822,1.43152-0.58044,2.24695-0.58044    c0.88446,0,1.70325,0.25623,2.41712,0.67285c0.02386,0.01453,0.05151,0.01788,0.07037,0.03827    c1.39832,0.84753,2.34406,2.36938,2.34406,4.12042C34.45899,27.15118,33.5387,28.65906,32.1698,29.513z" style="fill:#303030;"/><path d="M32.19825,22.08447v6.67578c1.00299-0.77454,1.66113-1.97552,1.66113-3.33789    S33.20124,22.85901,32.19825,22.08447z" style="fill:#303030;"/><path d="M29.92725,22.43799c0,0.16553-0.13428,0.2998-0.2998,0.2998s-0.2998-0.13428-0.2998-0.2998    v-1.21722c-0.54559,0.03912-1.06049,0.17566-1.52979,0.40289v7.59741c0.4693,0.22723,0.98419,0.36377,1.52979,0.40289v-1.21722    c0-0.16553,0.13428-0.2998,0.2998-0.2998s0.2998,0.13428,0.2998,0.2998v1.21722c0.60199-0.04315,1.16479-0.21008,1.67139-0.47968    v-7.44385c-0.50659-0.26959-1.0694-0.43652-1.67139-0.47968V22.43799z M30.49854,25.42236    c0,0.48108-0.38995,0.87103-0.87091,0.87103c-0.48102,0-0.87097-0.38995-0.87097-0.87103    c0-0.48096,0.38995-0.87091,0.87097-0.87091C30.10858,24.55145,30.49854,24.94141,30.49854,25.42236z" style="fill:#303030;"/><path d="M25.396,25.42236c0,1.4281,0.7157,2.68762,1.80225,3.45441v-6.90881    C26.1117,22.73474,25.396,23.99426,25.396,25.42236z" style="fill:#303030;"/><path d="M14.01172,25.42236c0,1.4281,0.71558,2.68762,1.80225,3.45435v-6.90869    C14.7273,22.73474,14.01172,23.99426,14.01172,25.42236z" style="fill:#303030;"/><path d="M20.81397,22.08441v6.6759c1.00293-0.77454,1.66113-1.97552,1.66113-3.33795    S21.8169,22.85895,20.81397,22.08441z" style="fill:#303030;"/><path d="M18.54346,22.43799c0,0.16553-0.13428,0.2998-0.2998,0.2998s-0.2998-0.13428-0.2998-0.2998    v-1.21722c-0.54578,0.03912-1.06085,0.17572-1.53027,0.40295v7.59729c0.46942,0.22723,0.9845,0.36383,1.53027,0.40295v-1.21722    c0-0.16553,0.13428-0.2998,0.2998-0.2998s0.2998,0.13428,0.2998,0.2998v1.21722c0.60181-0.04315,1.16443-0.21002,1.6709-0.47955    v-7.44409c-0.50647-0.26953-1.06909-0.4364-1.6709-0.47955V22.43799z M19.11444,25.42236    c0,0.48108-0.38989,0.87103-0.87097,0.87103c-0.48102,0-0.87097-0.38995-0.87097-0.87103    c0-0.48096,0.38995-0.87091,0.87097-0.87091C18.72455,24.55145,19.11444,24.94141,19.11444,25.42236z" style="fill:#303030;"/></g></g></svg>